<svg id="Logo_2__Gold_" data-name="Logo_2_(Gold)" xmlns="http://www.w3.org/2000/svg" xmlns:xlink="http://www.w3.org/1999/xlink" viewBox="0 0 377.43 400"><defs><style>.cls-1{opacity:0.5;}.cls-2{fill:url(#Nueva_muestra_de_degradado_1);}.cls-3{fill:url(#Nueva_muestra_de_degradado_1-2);}.cls-4{fill:url(#Nueva_muestra_de_degradado_1-3);}.cls-5{fill:url(#Nueva_muestra_de_degradado_1-4);}.cls-6{fill:url(#Nueva_muestra_de_degradado_1-5);}.cls-7{fill:url(#Nueva_muestra_de_degradado_1-6);}.cls-8{fill:url(#Nueva_muestra_de_degradado_1-7);}.cls-9{fill:url(#Nueva_muestra_de_degradado_1-8);}.cls-10{fill:url(#Nueva_muestra_de_degradado_1-9);}.cls-11{fill:url(#Nueva_muestra_de_degradado_1-10);}.cls-12{fill:url(#Nueva_muestra_de_degradado_1-11);}.cls-13{fill:url(#Nueva_muestra_de_degradado_1-12);}.cls-14{fill:url(#Nueva_muestra_de_degradado_1-13);}.cls-15{fill:url(#Nueva_muestra_de_degradado_1-14);}.cls-16{fill:url(#Nueva_muestra_de_degradado_1-15);}.cls-17{fill:url(#Nueva_muestra_de_degradado_1-16);}.cls-18{fill:url(#Nueva_muestra_de_degradado_1-17);}.cls-19{fill:url(#Nueva_muestra_de_degradado_1-18);}</style><linearGradient id="Nueva_muestra_de_degradado_1" x1="73.37" y1="-37.61" x2="419.08" y2="348.43" gradientUnits="userSpaceOnUse"><stop offset="0" stop-color="#b1974e"/><stop offset="0.05" stop-color="#b49b51"/><stop offset="0.1" stop-color="#bda65a"/><stop offset="0.15" stop-color="#ccb869"/><stop offset="0.2" stop-color="#e2d27d"/><stop offset="0.22" stop-color="#f2e68d"/><stop offset="0.39" stop-color="#ddbc6e"/><stop offset="0.63" stop-color="#9f783d"/><stop offset="0.79" stop-color="#cca053"/><stop offset="1" stop-color="#e2c975"/></linearGradient><linearGradient id="Nueva_muestra_de_degradado_1-2" x1="5.14" y1="23.5" x2="350.84" y2="409.54" xlink:href="#Nueva_muestra_de_degradado_1"/><linearGradient id="Nueva_muestra_de_degradado_1-3" x1="104.83" y1="-65.77" x2="450.53" y2="320.27" xlink:href="#Nueva_muestra_de_degradado_1"/><linearGradient id="Nueva_muestra_de_degradado_1-4" x1="36.49" y1="-4.58" x2="382.19" y2="381.46" xlink:href="#Nueva_muestra_de_degradado_1"/><linearGradient id="Nueva_muestra_de_degradado_1-5" x1="69.72" y1="-34.34" x2="415.42" y2="351.7" xlink:href="#Nueva_muestra_de_degradado_1"/><linearGradient id="Nueva_muestra_de_degradado_1-6" x1="114.15" y1="-74.13" x2="459.86" y2="311.91" xlink:href="#Nueva_muestra_de_degradado_1"/><linearGradient id="Nueva_muestra_de_degradado_1-7" x1="80.1" y1="-43.64" x2="425.81" y2="342.41" xlink:href="#Nueva_muestra_de_degradado_1"/><linearGradient id="Nueva_muestra_de_degradado_1-8" x1="8.28" y1="20.68" x2="353.99" y2="406.72" xlink:href="#Nueva_muestra_de_degradado_1"/><linearGradient id="Nueva_muestra_de_degradado_1-9" x1="46.76" y1="-13.78" x2="392.47" y2="372.26" xlink:href="#Nueva_muestra_de_degradado_1"/><linearGradient id="Nueva_muestra_de_degradado_1-10" x1="-164.48" y1="175.39" x2="181.22" y2="561.43" xlink:href="#Nueva_muestra_de_degradado_1"/><linearGradient id="Nueva_muestra_de_degradado_1-11" x1="-138.85" y1="152.44" x2="206.85" y2="538.48" xlink:href="#Nueva_muestra_de_degradado_1"/><linearGradient id="Nueva_muestra_de_degradado_1-12" x1="-114.32" y1="130.48" x2="231.38" y2="516.52" xlink:href="#Nueva_muestra_de_degradado_1"/><linearGradient id="Nueva_muestra_de_degradado_1-13" x1="-87.25" y1="106.23" x2="258.45" y2="492.27" xlink:href="#Nueva_muestra_de_degradado_1"/><linearGradient id="Nueva_muestra_de_degradado_1-14" x1="-65.65" y1="86.89" x2="280.05" y2="472.93" xlink:href="#Nueva_muestra_de_degradado_1"/><linearGradient id="Nueva_muestra_de_degradado_1-15" x1="-44.13" y1="67.62" x2="301.57" y2="453.66" xlink:href="#Nueva_muestra_de_degradado_1"/><linearGradient id="Nueva_muestra_de_degradado_1-16" x1="-27.29" y1="52.53" x2="318.42" y2="438.57" xlink:href="#Nueva_muestra_de_degradado_1"/><linearGradient id="Nueva_muestra_de_degradado_1-17" x1="1.72" y1="26.55" x2="347.43" y2="412.6" xlink:href="#Nueva_muestra_de_degradado_1"/><linearGradient id="Nueva_muestra_de_degradado_1-18" x1="26.55" y1="4.33" x2="372.25" y2="390.37" xlink:href="#Nueva_muestra_de_degradado_1"/></defs><title>Logo_Gold</title><g class="cls-1"><path class="cls-2" d="M250.64,178.36a63.92,63.92,0,0,0-.27-37.05c-.38.21-.78.4-1.19.58a62.48,62.48,0,0,1,.28,35.86C249.86,177.94,250.26,178.14,250.64,178.36Z"/><path class="cls-3" d="M125.47,160.28a62.89,62.89,0,0,1,2.77-18.4c-.41-.18-.81-.37-1.19-.58a63.77,63.77,0,0,0-.25,37.14c.39-.22.78-.41,1.19-.6A62.84,62.84,0,0,1,125.47,160.28Z"/><path class="cls-4" d="M252,96.39a62.65,62.65,0,0,1-2.73,18.26c.41.18.82.37,1.21.59a64.12,64.12,0,0,0,0-37.58,13.34,13.34,0,0,1-1.2.59A62.5,62.5,0,0,1,252,96.39Z"/><path class="cls-5" d="M126.81,78.23a63.91,63.91,0,0,0,.18,37c.39-.22.8-.41,1.21-.59A62.47,62.47,0,0,1,128,78.83,11.87,11.87,0,0,1,126.81,78.23Z"/><path class="cls-6" d="M363.94,160.28a64.6,64.6,0,0,0-63.43-64.51A64.49,64.49,0,0,0,196.78,20.68c.36.24.72.49,1.06.76a63.19,63.19,0,0,1,101.52,73.7A64.73,64.73,0,0,0,258.1,65.39c0,.44-.06.88-.12,1.31a63.38,63.38,0,0,1,40.23,29.07,64.32,64.32,0,0,0-46,20.62c.35.26.68.53,1,.82a63.08,63.08,0,0,1,45.07-20.14A63.43,63.43,0,0,1,258,126.21c.06.43.09.86.12,1.3a64.73,64.73,0,0,0,41.26-29.75,63.09,63.09,0,0,1,0,61.28,64.77,64.77,0,0,0-41.24-29.68c0,.44-.09.87-.16,1.29a63.42,63.42,0,0,1,40.64,29.7A63.45,63.45,0,0,1,258.07,190c0,.41.06.83.06,1.25v.07a64.75,64.75,0,0,0,41.19-29.67,63.1,63.1,0,0,1,.05,61.27A64.78,64.78,0,0,0,258,193.14c-.05.43-.12.86-.21,1.28a63.45,63.45,0,0,1,40.4,29.07,63.08,63.08,0,0,1-45.56-20.71c-.33.27-.67.53-1,.78a64.34,64.34,0,0,0,46.68,21.24,63.23,63.23,0,0,1-53.19,30.74,64.26,64.26,0,0,0,5-51.12c-.39.2-.78.39-1.19.56a62.91,62.91,0,0,1-5.36,50.58,62.87,62.87,0,0,1-32.21-9.14l-.65,1.12a63.94,63.94,0,0,0,32.12,9.3,63.43,63.43,0,0,1-39.28,28.77c0,.05,0,.09,0,.14,0,.41,0,.82-.06,1.22a64.76,64.76,0,0,0,40.82-30.1,64.6,64.6,0,0,0,55-31.33,63.21,63.21,0,0,1-102.52,72.63c-.36.24-.74.47-1.13.68A64.51,64.51,0,0,0,300.45,224.8,64.6,64.6,0,0,0,363.94,160.28Zm-63.4,63.21a64.31,64.31,0,0,0-.47-63.14,64.33,64.33,0,0,0,.4-63.28,63.22,63.22,0,0,1,.07,126.42Z"/><path class="cls-7" d="M234.4,52.77c.35-.26.71-.51,1.09-.74A64.62,64.62,0,0,0,203.55,33.6c0,.45-.05.89-.1,1.33A63.23,63.23,0,0,1,234.4,52.77Z"/><path class="cls-8" d="M141.53,52.45c.39.22.76.46,1.12.71A63.27,63.27,0,0,1,174,34.92c0-.43-.08-.88-.09-1.32A64.59,64.59,0,0,0,141.53,52.45Z"/><path class="cls-9" d="M133.38,319.37a63.21,63.21,0,0,1-55.33-93.83,64.6,64.6,0,0,0,55,31.33A64.71,64.71,0,0,0,173.93,287c0-.4-.07-.81-.07-1.22,0-.05,0-.09,0-.14a63.42,63.42,0,0,1-39.29-28.77,64,64,0,0,0,31.69-9l-.66-1.11a63,63,0,0,1-31.77,8.86,62.94,62.94,0,0,1-5.39-50.5,12.81,12.81,0,0,1-1.18-.57,64.13,64.13,0,0,0,5.06,51A63.23,63.23,0,0,1,79.14,224.8a64.31,64.31,0,0,0,46.64-21.19c-.35-.24-.7-.5-1-.77a63.07,63.07,0,0,1-45.52,20.65,63.41,63.41,0,0,1,40.39-29.07c-.09-.42-.15-.85-.2-1.28a64.78,64.78,0,0,0-41.37,29.78,63.1,63.1,0,0,1,0-61.27,64.74,64.74,0,0,0,41.2,29.67c0-.44,0-.88.07-1.32a63.4,63.4,0,0,1-40.51-29.65,63.4,63.4,0,0,1,40.65-29.7c-.07-.42-.12-.85-.16-1.29A64.72,64.72,0,0,0,78.1,159a63.09,63.09,0,0,1,0-61.28,64.71,64.71,0,0,0,41.28,29.75c0-.44.06-.87.12-1.3A63.41,63.41,0,0,1,79.17,97.07a63.08,63.08,0,0,1,45.08,20.14c.32-.29.66-.56,1-.82a64.34,64.34,0,0,0-46-20.62,63.41,63.41,0,0,1,40.17-29c0-.44-.07-.88-.07-1.33A64.76,64.76,0,0,0,78.06,95.14,63.19,63.19,0,0,1,179.58,21.45c.35-.27.7-.53,1.07-.77A64.5,64.5,0,0,0,76.91,95.77a64.52,64.52,0,0,0,.06,129,64.5,64.5,0,0,0,104.73,74,10.92,10.92,0,0,1-1.13-.68A63.09,63.09,0,0,1,133.38,319.37ZM14.79,160.28A63.31,63.31,0,0,1,77,97.07a64.33,64.33,0,0,0,.4,63.28,64.31,64.31,0,0,0-.47,63.14A63.3,63.3,0,0,1,14.79,160.28Z"/></g><path class="cls-10" d="M261.4,128.26a18.14,18.14,0,0,0-16.5-18V82.69A18.12,18.12,0,1,0,228.2,54.62L204.91,41.21a17.94,17.94,0,0,0,1.92-8.07,18.12,18.12,0,1,0-34.34,8L148.86,54.79a18.11,18.11,0,1,0-16.39,28.57l0,26.86a18.11,18.11,0,0,0,0,36.07v27a18.11,18.11,0,0,0,1.68,36.15,17.93,17.93,0,0,0,7.57-1.68L178.23,271a18.11,18.11,0,1,0,20.93,0l36.54-63.29a18.11,18.11,0,1,0,9.2-34.47V146.29A18.13,18.13,0,0,0,261.4,128.26ZM243.28,53.07a11.59,11.59,0,1,1-11.59,11.58A11.6,11.6,0,0,1,243.28,53.07Zm-40.11-9,23.44,13.53a18.15,18.15,0,0,0-1.39,6H196.35v3.3h29A18.14,18.14,0,0,0,233,79.57l-25.25,43.74h3.89L236,81.21a17.54,17.54,0,0,0,5.6,1.47v27.55a18.13,18.13,0,0,0-16.31,16.38h-28.9v3.3h28.9a17.78,17.78,0,0,0,1.59,5.91l-.51.3v0l-22.84,13.19a18.23,18.23,0,0,0-4.32-4.31l6.78-11.75h-3.88l-5.78,10.09a18.24,18.24,0,0,0-3.16-1.12l0-91.47A18.12,18.12,0,0,0,203.17,44Zm22.08,149a17.79,17.79,0,0,0,1.54,5.74l-.21.13v0l-23.17,13.39a18.14,18.14,0,0,0-10.29-7V177.3a18.19,18.19,0,0,0,10.36-7.09l23.35,13.49a18.05,18.05,0,0,0-1.59,6H196.35V193Zm-73.07-3.3a17.8,17.8,0,0,0-1.63-6l23.38-13.5a18.21,18.21,0,0,0,10.31,7.1v27.93a18.16,18.16,0,0,0-10.23,7l-23.35-13.45a18.08,18.08,0,0,0,1.53-5.79H181v-3.3Zm20.09-22.38-23.39,13.54a18.1,18.1,0,0,0-13.11-7.52v-27a18.08,18.08,0,0,0,13.15-7.58l23.35,13.48a17.9,17.9,0,0,0,0,15.1Zm4.86-7.55a11.59,11.59,0,1,1,11.59,11.59A11.6,11.6,0,0,1,177.13,159.74Zm11.59,51.42a11.59,11.59,0,1,1-11.59,11.59A11.6,11.6,0,0,1,188.72,211.16Zm16.43-43.84a17.94,17.94,0,0,0,0-15.16l23.34-13.48a18.09,18.09,0,0,0,13.11,7.61v26.93a18.1,18.1,0,0,0-13.1,7.58ZM188.72,21.56a11.59,11.59,0,1,1-11.59,11.58A11.59,11.59,0,0,1,188.72,21.56ZM152.19,66.84H181v-3.3H152.18a18.15,18.15,0,0,0-1.63-5.87L174.24,44a18.17,18.17,0,0,0,10,6.69V142.2a18.86,18.86,0,0,0-3.11,1.11l-5.82-10.1h-3.89L178.23,145a18.1,18.1,0,0,0-4.3,4.3L151,136v0l-.38-.22a18.16,18.16,0,0,0,1.61-5.93H181v-3.3H152.19a18.14,18.14,0,0,0-16.39-16.39V83.36a17.83,17.83,0,0,0,5.92-1.59l24,41.54h3.88l-25-43.23A18.07,18.07,0,0,0,152.19,66.84Zm-29.63-1.51a11.59,11.59,0,1,1,11.59,11.59A11.6,11.6,0,0,1,122.56,65.33Zm0,62.93a11.59,11.59,0,1,1,11.59,11.59A11.6,11.6,0,0,1,122.56,128.26Zm11.59,74.67a11.59,11.59,0,1,1,11.59-11.59A11.6,11.6,0,0,1,134.15,202.93Zm10.48,3.16a18.28,18.28,0,0,0,4.41-4.45l23.28,13.44a18.06,18.06,0,0,0,11.92,25.2v27.93a18.65,18.65,0,0,0-3.12,1.11Zm55.67,79.66a11.59,11.59,0,1,1-11.58-11.58A11.6,11.6,0,0,1,200.3,285.75Zm-4.06-16.46a17.73,17.73,0,0,0-3.12-1.09l0-27.89a18.13,18.13,0,0,0,13.74-17.56,17.89,17.89,0,0,0-1.74-7.7l23.33-13.47a18.12,18.12,0,0,0,4.37,4.41Zm58.63-78a11.59,11.59,0,1,1-11.59-11.59A11.6,11.6,0,0,1,254.87,191.25Zm-11.59-51.4a11.59,11.59,0,1,1,11.59-11.59A11.6,11.6,0,0,1,243.28,139.85Z"/><path class="cls-11" d="M22.28,355.4H4.58V378H0v2.71H4.58V399H19.81a10.54,10.54,0,0,0,10.53-10.53,10.4,10.4,0,0,0-4.23-8.39,12.65,12.65,0,0,0-3.83-24.7Zm5.34,33.09a7.81,7.81,0,0,1-7.81,7.81H7.42V380.68H19.81A7.82,7.82,0,0,1,27.62,388.49ZM22.28,378H7.42V358.11H22.28a9.93,9.93,0,1,1,0,19.86Z"/><polygon class="cls-12" points="47.26 385.02 42.67 385.02 42.67 387.74 47.26 387.74 47.26 399.02 77.6 399.02 77.6 396.31 50.09 396.31 50.09 387.74 77.6 387.74 77.6 385.02 50.09 385.02 50.09 358.11 77.6 358.11 77.6 355.4 47.26 355.4 47.26 385.02"/><polygon class="cls-13" points="122.02 394.05 90.89 355.4 88.4 355.4 88.4 399.02 91.23 399.02 91.23 360.37 122.36 399.02 124.85 399.02 124.85 355.4 122.02 355.4 122.02 394.05"/><polygon class="cls-14" points="140.24 385.02 135.66 385.02 135.66 387.74 140.24 387.74 140.24 399.02 170.58 399.02 170.58 396.31 143.07 396.31 143.07 387.74 170.58 387.74 170.58 385.02 143.07 385.02 143.07 358.11 170.58 358.11 170.58 355.4 140.24 355.4 140.24 385.02"/><path class="cls-15" d="M197.55,355.4H181.38V399h16.17a21.81,21.81,0,0,0,0-43.62Zm0,40.9H184.22V358.11h13.33a19.1,19.1,0,1,1,0,38.19Z"/><rect class="cls-16" x="231.7" y="355.4" width="2.83" height="43.62"/><polygon class="cls-17" points="281.57 354.68 263.62 375.39 245.67 354.68 243.74 356.61 261.81 377.44 243.78 398.19 245.81 400 263.62 379.5 281.43 400 283.46 398.19 265.42 377.39 283.49 356.61 281.57 354.68"/><path class="cls-18" d="M326.21,381.15a15.4,15.4,0,0,1-30.79,0V355.4h-2.83v25.75a18.23,18.23,0,0,0,36.45,0V355.4h-2.83Z"/><path class="cls-19" d="M359,357.76c6.91,0,11.45,1.72,16.19,6.12l.49.45,1.8-2-.45-.43c-5-4.78-10.41-6.82-18-6.82-8.46,0-17.58,3.91-17.58,12.52,0,10.86,14.72,11.7,19.23,11.7,5.95,0,12,2.85,12,8.28,0,5.85-6.18,9.34-12.16,9.34a20.42,20.42,0,0,1-13.61-5.24l-.49-.43-1.81,2,.49.44a23,23,0,0,0,15.42,5.92c7.31,0,14.88-4.51,14.88-12.06,0-7.22-7.4-11-14.7-11-6.13,0-16.51-1.9-16.51-9C344.09,361.13,351.57,357.76,359,357.76Z"/></svg>